<svg width="32" height="32" viewBox="0 0 32 32" fill="none" xmlns="http://www.w3.org/2000/svg">
    <path fill-rule="evenodd" clip-rule="evenodd"
        d="M22.0428 2.0037C24.213 1.86859 25.6207 2.82996 26.266 4.88782C26.4797 6.57729 25.8732 7.87055 24.4463 8.76765C22.5543 9.58385 21.1236 10.9 20.1544 12.7161C20.3127 11.9228 20.6561 11.2132 21.1845 10.5874C21.633 10.116 22.1022 9.66962 22.5922 9.24833C23.3136 8.78461 24.0233 8.30392 24.721 7.80627C25.5078 7.0563 25.7481 6.15215 25.442 5.09383C24.852 3.51165 23.7189 2.79062 22.0428 2.93074C20.697 3.39163 20.1362 4.31867 20.3604 5.71185C20.8202 6.81128 21.5869 7.09741 22.6609 6.57022C23.214 5.88508 23.0995 5.35861 22.3175 4.99082C21.643 4.4377 21.6888 3.95702 22.4549 3.54876C23.4715 3.51433 24.1467 3.98357 24.4806 4.95649C24.7648 6.50603 24.1811 7.57041 22.7295 8.14962C20.7687 8.45444 19.567 7.64183 19.1244 5.71185C18.9694 4.04195 19.6676 2.886 21.2188 2.24404C21.5019 2.16217 21.7766 2.08205 22.0428 2.0037Z"
        fill="#B68B36" />
    <path fill-rule="evenodd" clip-rule="evenodd"
        d="M18.4033 9.97002C19.0093 9.89057 19.6273 9.8791 20.2574 9.93568C20.3032 9.95855 20.3489 9.98148 20.3947 10.0044C20.2593 10.0383 20.1219 10.0498 19.9827 10.0387C19.4689 9.97057 18.9425 9.9477 18.4033 9.97002Z"
        fill="#6E4E1B" />
    <path fill-rule="evenodd" clip-rule="evenodd"
        d="M31.794 15.0515C31.8398 15.0515 31.8855 15.0515 31.9313 15.0515C32.2152 18.8648 30.9792 22.0808 28.2232 24.6996C26.4567 24.5183 25.1749 25.2164 24.3777 26.794C24.2977 26.8684 24.2061 26.9256 24.103 26.9657C22.7304 27.3461 21.3341 27.4835 19.9142 27.3777C19.6435 26.0998 18.8652 25.3216 17.5794 25.0429C16.6659 24.8908 15.8075 25.0396 15.0043 25.4893C13.0487 24.0584 11.6295 22.2043 10.7468 19.9271C10.2296 18.5908 9.84048 17.2174 9.5794 15.8069C9.26524 14.6524 8.78455 13.5766 8.13734 12.5794C7.14747 11.2775 5.83133 10.5793 4.18884 10.485C3.70815 10.4392 3.22747 10.4392 2.74678 10.485C1.83214 10.6108 0.916553 10.7024 0 10.7597C2.10356 10.0886 4.25521 9.83676 6.45494 10.0043C8.27742 10.3393 9.54781 11.3579 10.2661 13.0601C10.8724 14.9141 11.4675 16.7682 12.0515 18.6223C13.491 21.9481 16.0203 23.8365 19.6395 24.2876C22.592 24.5739 25.2701 23.8643 27.6738 22.1588C29.2711 20.6512 30.4957 18.8773 31.3476 16.8369C31.5604 16.2563 31.7092 15.6611 31.794 15.0515Z"
        fill="#F6F6F6" />
    <path fill-rule="evenodd" clip-rule="evenodd"
        d="M18.4035 9.9692C18.9427 9.94689 19.4692 9.96975 19.9829 10.0379C18.643 10.0522 17.4069 10.407 16.2748 11.1023C15.8627 11.399 15.588 11.7881 15.4508 12.2696C15.5183 12.7037 15.7472 13.0242 16.1375 13.231C17.856 14.021 19.6642 14.3759 21.5623 14.2954C23.0161 14.3468 24.4353 14.1523 25.8199 13.7117C26.5197 13.4712 27.1034 13.0707 27.5709 12.51C27.901 11.7814 27.8895 11.0604 27.5366 10.3469C28.7566 10.8835 29.8668 11.6046 30.8671 12.51C31.972 13.7799 31.8003 14.8443 30.352 15.7031C29.3559 16.2155 28.3029 16.5589 27.1932 16.7332C23.8854 17.327 20.5664 17.3957 17.2362 16.9392C15.8159 16.7287 14.4425 16.3625 13.116 15.8404C12.4412 15.543 11.8575 15.1196 11.3649 14.5701C10.8992 13.9194 10.8763 13.2557 11.2962 12.5786C12.0015 11.7273 12.8827 11.1207 13.94 10.7589C15.3855 10.263 16.8733 9.99976 18.4035 9.9692Z"
        fill="#B98D37" />
    <path fill-rule="evenodd" clip-rule="evenodd"
        d="M8.51492 14.3645C8.64999 14.3481 8.77593 14.371 8.8926 14.4332C8.98256 14.6783 9.03976 14.9301 9.06427 15.1886C7.92745 15.4455 7.4811 16.1551 7.72522 17.3173C8.11979 18.4556 8.90949 19.1423 10.0943 19.3774C8.75368 19.7621 7.62063 19.4417 6.69518 18.416C5.84216 16.4137 6.44875 15.0632 8.51492 14.3645Z"
        fill="#B68B36" />
    <path fill-rule="evenodd" clip-rule="evenodd"
        d="M31.9313 15.0507C31.8855 15.0507 31.8397 15.0507 31.7939 15.0507C31.7953 14.1406 31.8411 14.1406 31.9313 15.0507Z"
        fill="#978D88" />
    <path fill-rule="evenodd" clip-rule="evenodd"
        d="M27.0557 25.1454C27.8294 25.0953 28.5046 25.3242 29.0815 25.8321C29.2422 25.9894 29.3337 26.1726 29.3562 26.3815C29.1349 26.5798 28.8946 26.7515 28.6351 26.8965C27.6933 27.1087 26.7548 27.3376 25.8197 27.5832C25.4726 27.7472 25.1636 27.9646 24.8926 28.2355C24.6952 27.5726 24.7868 26.9546 25.1673 26.3815C25.6637 25.758 26.2931 25.346 27.0557 25.1454Z"
        fill="#F6F6F5" />
    <path fill-rule="evenodd" clip-rule="evenodd"
        d="M16.2747 25.4891C17.5383 25.303 18.5111 25.7379 19.1931 26.7938C19.3445 27.1196 19.3789 27.4514 19.2961 27.7895C18.8513 27.9521 18.3935 27.9979 17.9227 27.9268C17.1488 27.6612 16.3705 27.4094 15.588 27.1715C15.2191 27.125 14.8529 27.1365 14.4893 27.2058C14.6079 26.6407 14.9054 26.1944 15.382 25.8667C15.6844 25.7322 15.982 25.6064 16.2747 25.4891Z"
        fill="#F6F5F5" />
    <path fill-rule="evenodd" clip-rule="evenodd"
        d="M29.528 26.7246C29.8139 27.6875 29.5621 28.5001 28.7726 29.1624C27.7938 29.9115 26.7637 30.0031 25.6825 29.4371C25.4379 29.2271 25.2319 28.9867 25.0645 28.716C25.3133 28.364 25.6338 28.1008 26.0258 27.9263C26.8468 27.7285 27.6709 27.5453 28.4979 27.377C28.9132 27.2616 29.2565 27.0441 29.528 26.7246Z"
        fill="#F6F6F6" />
    <path fill-rule="evenodd" clip-rule="evenodd"
        d="M14.6266 27.5494C15.0659 27.5318 15.5008 27.5661 15.9313 27.6524C16.6003 27.9364 17.287 28.1654 17.9914 28.3391C18.4338 28.3919 18.8688 28.3576 19.2961 28.2361C19.0404 29.2243 18.3995 29.7851 17.3733 29.9185C16.2114 30.1271 15.3073 29.7494 14.6609 28.7855C14.4904 28.4353 14.4217 28.0691 14.4549 27.6868C14.5232 27.6479 14.5804 27.6021 14.6266 27.5494Z"
        fill="#F6F6F5" />
</svg>